<?xml version="1.0" encoding="UTF-8" standalone="no"?>
<svg width="60px" height="60px" viewBox="0 0 60 60" version="1.1" xmlns="http://www.w3.org/2000/svg" xmlns:xlink="http://www.w3.org/1999/xlink">
    <!-- Generator: sketchtool 3.7 (28169) - http://www.bohemiancoding.com/sketch -->
    <title>CFEB1B6A-35CA-4689-AACF-20EDC8C6FCD9</title>
    <desc>Created with sketchtool.</desc>
    <defs></defs>
    <g id="Containers" stroke="none" stroke-width="1" fill="none" fill-rule="evenodd">
        <g id="064_NewMediaContainer" transform="translate(-120.000000, -39.000000)" fill="#FFFFFF">
            <g id="sidebar" transform="translate(0.000000, -1.000000)">
                <g id="logo" transform="translate(45.000000, 40.000000)">
                    <g id="ic_hotspotting_logo-copy" transform="translate(75.000000, 0.000000)">
                        <path d="M52.7982327,10.5243004 C50.9602356,10.5243004 49.4756996,9.03976436 49.4756996,7.2017673 C49.4756996,5.36377025 50.9602356,3.87923417 52.7982327,3.87923417 C54.6362297,3.87923417 56.1207658,5.36377025 56.1207658,7.2017673 C56.1207658,9.03976436 54.6273932,10.5243004 52.7982327,10.5243004 M30,52.5243004 C17.5581738,52.5243004 7.47569956,42.4418262 7.47569956,30 C7.47569956,17.5581738 17.5581738,7.47569956 30,7.47569956 C30.9278351,7.47569956 31.8468336,7.5287187 32.7481591,7.64359352 C43.8910162,8.99558174 52.5243004,18.4948454 52.5243004,30 C52.5243004,42.4418262 42.4418262,52.5243004 30,52.5243004 M52.2857143,0 L30,0 C13.4315169,0 0,13.4315169 0,30 C0,46.5684831 13.4315169,60 30,60 C46.5684831,60 60,46.5684831 60,30 L60,7.71428571 C60,3.455081 56.544919,0 52.2857143,0" id="Fill-1"></path>
                        <path d="M30,19.7231222 C24.3357879,19.7231222 19.7231222,24.3357879 19.7231222,30 C19.7231222,35.6642121 24.3357879,40.2768778 30,40.2768778 C35.6642121,40.2768778 40.2768778,35.6642121 40.2768778,30 C40.2768778,24.3357879 35.6642121,19.7231222 30,19.7231222 M30,44.3505155 C22.0824742,44.3505155 15.6494845,37.9086892 15.6494845,30 C15.6494845,22.0824742 22.0913108,15.6494845 30,15.6494845 C37.9175258,15.6494845 44.3505155,22.0913108 44.3505155,30 C44.3505155,37.9175258 37.9175258,44.3505155 30,44.3505155 Z" id="Fill-3"></path>
                        <path d="M34.5773196,30 C34.5773196,32.5272459 32.5272459,34.5773196 30,34.5773196 C27.4727541,34.5773196 25.4226804,32.5272459 25.4226804,30 C25.4226804,27.4727541 27.4727541,25.4226804 30,25.4226804 C32.5272459,25.4226804 34.5773196,27.4727541 34.5773196,30" id="Fill-5"></path>
                    </g>
                </g>
            </g>
        </g>
    </g>
</svg>