<?xml version="1.0" encoding="UTF-8" standalone="no"?>
<svg width="24px" height="24px" viewBox="0 0 24 24" version="1.1" xmlns="http://www.w3.org/2000/svg" xmlns:xlink="http://www.w3.org/1999/xlink">
    <!-- Generator: sketchtool 3.7 (28169) - http://www.bohemiancoding.com/sketch -->
    <title>4C62BEF7-E0DD-43DF-B93D-55D4A2966B82</title>
    <desc>Created with sketchtool.</desc>
    <defs></defs>
    <g id="Guidelines" stroke="none" stroke-width="1" fill="none" fill-rule="evenodd">
        <g id="Icons" transform="translate(-280.000000, -10.000000)" fill="#141618">
            <g id="ic_add" transform="translate(280.000000, 10.000000)">
                <path d="M17,11 L13,11 L13,7 C13,6.447 12.553,6 12,6 C11.447,6 11,6.447 11,7 L11,11 L7,11 C6.447,11 6,11.447 6,12 C6,12.553 6.447,13 7,13 L11,13 L11,17 C11,17.553 11.447,18 12,18 C12.553,18 13,17.553 13,17 L13,13 L17,13 C17.553,13 18,12.553 18,12 C18,11.447 17.553,11 17,11" id="Fill-99"></path>
            </g>
        </g>
    </g>
</svg>