<?xml version="1.0" encoding="UTF-8" standalone="no"?>
<svg width="24px" height="24px" viewBox="0 0 24 24" version="1.1" xmlns="http://www.w3.org/2000/svg" xmlns:xlink="http://www.w3.org/1999/xlink">
    <!-- Generator: sketchtool 3.6.1 (26313) - http://www.bohemiancoding.com/sketch -->
    <title>DA7B3C94-8DDD-4B5A-8E11-311E9AA71C11</title>
    <desc>Created with sketchtool.</desc>
    <defs></defs>
    <g id="Guidelines" stroke="none" stroke-width="1" fill="none" fill-rule="evenodd">
        <g id="Icons" transform="translate(-70.000000, -50.000000)" fill="#000000">
            <g id="ic_campaigns" transform="translate(70.000000, 50.000000)">
                <path d="M22,17.613053 L12,14.280053 L12,7.72105299 L22,4.38805299 L22,17.613053 Z M10,14.001053 L6,14.001053 L4.96,14.001053 C3.328,14.001053 2,12.673053 2,10.961053 C2,9.32905299 3.328,8.00105299 4.96,8.00105299 L10,8.00105299 L10,14.001053 Z M7.279,20.001053 L5.388,20.001053 L6.721,16.001053 L8.612,16.001053 L7.279,20.001053 Z M23.585,2.18905299 C23.323,2.00105299 22.988,1.94905299 22.684,2.05205299 L10.839,6.00105299 L4.96,6.00105299 C2.225,6.00105299 0,8.22505299 0,11.041053 C0,13.661053 2.048,15.791053 4.624,15.967053 L3.052,20.684053 C2.949,20.989053 3.001,21.325053 3.188,21.586053 C3.377,21.846053 3.679,22.001053 4,22.001053 L8,22.001053 C8.431,22.001053 8.812,21.725053 8.948,21.317053 L10.72,16.001053 L10.839,16.001053 L22.684,19.949053 C22.787,19.984053 22.894,20.001053 23,20.001053 C23.207,20.001053 23.412,19.936053 23.585,19.812053 C23.846,19.624053 24,19.322053 24,19.001053 L24,3.00105299 C24,2.67905299 23.846,2.37805299 23.585,2.18905299 L23.585,2.18905299 Z" id="Fill-39"></path>
            </g>
        </g>
    </g>
</svg>