<?xml version="1.0" encoding="UTF-8" standalone="no"?>
<svg width="24px" height="24px" viewBox="0 0 24 24" version="1.1" xmlns="http://www.w3.org/2000/svg" xmlns:xlink="http://www.w3.org/1999/xlink">
    <!-- Generator: sketchtool 3.8.3 (29802) - http://www.bohemiancoding.com/sketch -->
    <title>11F55176-C098-4414-AA81-A9347EDB66A7</title>
    <desc>Created with sketchtool.</desc>
    <defs></defs>
    <g id="Guidelines" stroke="none" stroke-width="1" fill="none" fill-rule="evenodd">
        <g id="00c_Icons" transform="translate(-880.000000, -176.000000)" fill="#2A3034">
            <g id="ic_celebrity" transform="translate(880.000000, 176.000000)">
                <path d="M12,0 C5.383,0 0,5.383 0,12 C0,18.617 5.383,24 12,24 C18.617,24 24,18.617 24,12 C24,5.383 18.617,0 12,0 Z M12,22 C6.486,22 2,17.514 2,12 C2,6.486 6.486,2 12,2 C17.514,2 22,6.486 22,12 C22,17.514 17.514,22 12,22 Z M19.9525,9.6613 C19.8355,9.2963 19.5205,9.0293 19.1405,8.9753 L14.8205,8.3623 L12.8925,4.5493 C12.5525,3.8753 11.4475,3.8753 11.1075,4.5493 L9.1795,8.3623 L4.8595,8.9753 C4.4795,9.0293 4.1645,9.2963 4.0475,9.6613 C3.9305,10.0263 4.0335,10.4263 4.3105,10.6903 L7.4215,13.6513 L6.6885,17.8273 C6.6225,18.2013 6.7755,18.5803 7.0805,18.8043 C7.3865,19.0313 7.7915,19.0643 8.1305,18.8893 L11.9995,16.9033 L15.8695,18.8893 C16.0135,18.9643 16.1695,19.0003 16.3265,19.0003 C16.5365,19.0003 16.7445,18.9343 16.9195,18.8043 C17.2245,18.5803 17.3765,18.2013 17.3115,17.8273 L16.5785,13.6513 L19.6895,10.6903 C19.9665,10.4263 20.0695,10.0263 19.9525,9.6613 Z M14.8105,12.5723 C14.5685,12.8033 14.4565,13.1403 14.5145,13.4693 L14.9935,16.1913 L12.4565,14.8893 C12.3135,14.8163 12.1565,14.7793 11.9995,14.7793 C11.8435,14.7793 11.6865,14.8163 11.5425,14.8893 L9.0065,16.1913 L9.4855,13.4693 C9.5425,13.1403 9.4315,12.8033 9.1895,12.5723 L7.1855,10.6663 L9.9775,10.2693 C10.3005,10.2233 10.5815,10.0223 10.7295,9.7303 L11.9995,7.2173 L13.2705,9.7303 C13.4175,10.0223 13.6995,10.2233 14.0225,10.2693 L16.8145,10.6663 L14.8105,12.5723 Z"></path>
            </g>
        </g>
    </g>
</svg>