<?xml version="1.0" encoding="UTF-8" standalone="no"?>
<svg width="24px" height="24px" viewBox="0 0 24 24" version="1.1" xmlns="http://www.w3.org/2000/svg" xmlns:xlink="http://www.w3.org/1999/xlink">
    <!-- Generator: sketchtool 3.6.1 (26313) - http://www.bohemiancoding.com/sketch -->
    <title>1D2838DD-CD58-413D-92AC-18E2A64518C2</title>
    <desc>Created with sketchtool.</desc>
    <defs></defs>
    <g id="Guidelines" stroke="none" stroke-width="1" fill="none" fill-rule="evenodd">
        <g id="Icons" transform="translate(-340.000000, -50.000000)" fill="#000000">
            <g id="ic_collections" transform="translate(340.000000, 50.000000)">
                <path d="M21,7 L3,7 C1.897,7 1,7.897 1,9 L1,22 C1,23.103 1.897,24 3,24 L21,24 C22.102,24 23,23.103 23,22 L23,9 C23,7.897 22.102,7 21,7 Z M20.997,22 L3,22 L3,9 L21,9 L20.997,22 Z M3.9999,6 L19.9999,6 C20.5529,6 20.9999,5.553 20.9999,5 C20.9999,4.447 20.5529,4 19.9999,4 L3.9999,4 C3.4469,4 2.9999,4.447 2.9999,5 C2.9999,5.553 3.4469,6 3.9999,6 Z M5.9999,3 L17.9999,3 C18.5529,3 18.9999,2.553 18.9999,2 C18.9999,1.447 18.5529,1 17.9999,1 L5.9999,1 C5.4469,1 4.9999,1.447 4.9999,2 C4.9999,2.553 5.4469,3 5.9999,3 Z M9.4999,13 C10.3279,13 10.9999,12.328 10.9999,11.5 C10.9999,10.672 10.3279,10 9.4999,10 C8.6719,10 7.9999,10.672 7.9999,11.5 C7.9999,12.328 8.6719,13 9.4999,13 Z M6.9999,20 L10.9999,20 L16.9999,20 C17.3599,20 17.6919,19.807 17.8699,19.493 C18.0479,19.179 18.0429,18.794 17.8569,18.485 L14.8569,13.485 C14.4959,12.884 13.5039,12.884 13.1429,13.485 L10.9559,17.13 L9.8319,15.445 C9.4609,14.889 8.5389,14.889 8.1679,15.445 L6.1679,18.445 C5.9639,18.752 5.9439,19.146 6.1179,19.472 C6.2919,19.797 6.6309,20 6.9999,20 Z" id="ic_collection"></path>
            </g>
        </g>
    </g>
</svg>