<?xml version="1.0" encoding="UTF-8" standalone="no"?>
<svg width="24px" height="24px" viewBox="0 0 24 24" version="1.1" xmlns="http://www.w3.org/2000/svg" xmlns:xlink="http://www.w3.org/1999/xlink">
    <!-- Generator: sketchtool 3.7.1 (28215) - http://www.bohemiancoding.com/sketch -->
    <title>0478423C-45D9-4DAF-86EF-BD496E737FDA</title>
    <desc>Created with sketchtool.</desc>
    <defs></defs>
    <g id="Guidelines" stroke="none" stroke-width="1" fill="none" fill-rule="evenodd">
        <g id="Icons" transform="translate(-250.000000, -10.000000)" fill="#141618">
            <g id="ic_close" transform="translate(250.000000, 10.000000)">
                <path d="M13.41425,12.00025 L16.70725,8.70725 C17.09825,8.31625 17.09825,7.68425 16.70725,7.29325 C16.31625,6.90225 15.68425,6.90225 15.29325,7.29325 L12.00025,10.58625 L8.70725,7.29325 C8.31625,6.90225 7.68425,6.90225 7.29325,7.29325 C6.90225,7.68425 6.90225,8.31625 7.29325,8.70725 L10.58625,12.00025 L7.29325,15.29325 C6.90225,15.68425 6.90225,16.31625 7.29325,16.70725 C7.48825,16.90225 7.74425,17.00025 8.00025,17.00025 C8.25625,17.00025 8.51225,16.90225 8.70725,16.70725 L12.00025,13.41425 L15.29325,16.70725 C15.48825,16.90225 15.74425,17.00025 16.00025,17.00025 C16.25625,17.00025 16.51225,16.90225 16.70725,16.70725 C17.09825,16.31625 17.09825,15.68425 16.70725,15.29325 L13.41425,12.00025 Z" id="Fill-37"></path>
            </g>
        </g>
    </g>
</svg>