<?xml version="1.0" encoding="UTF-8" standalone="no"?>
<svg width="24px" height="24px" viewBox="0 0 24 24" version="1.1" xmlns="http://www.w3.org/2000/svg" xmlns:xlink="http://www.w3.org/1999/xlink">
    <!-- Generator: sketchtool 3.8.3 (29802) - http://www.bohemiancoding.com/sketch -->
    <title>247379F3-C927-4623-A6A4-1E3FCD859CCB</title>
    <desc>Created with sketchtool.</desc>
    <defs></defs>
    <g id="Guidelines" stroke="none" stroke-width="1" fill="none" fill-rule="evenodd">
        <g id="00c_Icons" transform="translate(-760.000000, -136.000000)" fill="#2A3034">
            <g id="ic_cart" transform="translate(760.000000, 136.000000)">
                <path d="M19.1330305,21 L4.86703049,21 L3.15403049,9 L6.18003049,9 L6.68203049,11.507 C6.26703049,11.873 6.00003049,12.403 6.00003049,13 C6.00003049,14.105 6.89603049,15 8.00003049,15 C9.10503049,15 10.0000305,14.105 10.0000305,13 C10.0000305,12.122 9.43003049,11.384 8.64303049,11.115 L8.22003049,9 L15.7800305,9 L15.3570305,11.115 C14.5700305,11.384 14.0000305,12.122 14.0000305,13 C14.0000305,14.105 14.8960305,15 16.0000305,15 C17.1050305,15 18.0000305,14.105 18.0000305,13 C18.0000305,12.403 17.7330305,11.873 17.3190305,11.507 L17.8200305,9 L20.8470305,9 L19.1330305,21 Z M12.0000305,4 C13.8600305,4 15.4170305,5.279 15.8630305,7 L8.13703049,7 C8.58303049,5.279 10.1410305,4 12.0000305,4 L12.0000305,4 Z M22.7560305,7.345 C22.5660305,7.126 22.2900305,7 22.0000305,7 L17.9100305,7 C17.4320305,4.167 14.9670305,2 12.0000305,2 C9.03303049,2 6.56903049,4.167 6.09103049,7 L2.00003049,7 C1.71003049,7 1.43503049,7.126 1.24403049,7.345 C1.05503049,7.563 0.969030487,7.854 1.01003049,8.142 L3.01003049,22.142 C3.08003049,22.634 3.50203049,23 4.00003049,23 L20.0000305,23 C20.4980305,23 20.9200305,22.634 20.9900305,22.142 L22.9900305,8.142 C23.0310305,7.854 22.9460305,7.563 22.7560305,7.345 L22.7560305,7.345 Z"></path>
            </g>
        </g>
    </g>
</svg>