<?xml version="1.0" encoding="UTF-8" standalone="no"?>
<svg width="24px" height="24px" viewBox="0 0 24 24" version="1.1" xmlns="http://www.w3.org/2000/svg" xmlns:xlink="http://www.w3.org/1999/xlink">
    <!-- Generator: sketchtool 3.8.3 (29802) - http://www.bohemiancoding.com/sketch -->
    <title>7982FF7E-B478-4B87-91E6-13CD2EADFBBA</title>
    <desc>Created with sketchtool.</desc>
    <defs></defs>
    <g id="Guidelines" stroke="none" stroke-width="1" fill="none" fill-rule="evenodd">
        <g id="00c_Icons" transform="translate(-880.000000, -136.000000)" fill="#2A3034">
            <g id="ic_channel" transform="translate(880.000000, 136.000000)">
                <path d="M22,6 L14.414,6 L17.707,2.707 C18.098,2.316 18.098,1.684 17.707,1.293 C17.316,0.902 16.684,0.902 16.293,1.293 L12,5.586 L7.707,1.293 C7.316,0.902 6.684,0.902 6.293,1.293 C5.902,1.684 5.902,2.316 6.293,2.707 L9.586,6 L2,6 C1.447,6 1,6.447 1,7 L1,21 C1,21.553 1.447,22 2,22 L4,22 C4,22.553 4.447,23 5,23 C5.553,23 6,22.553 6,22 L18,22 C18,22.553 18.447,23 19,23 C19.553,23 20,22.553 20,22 L22,22 C22.553,22 23,21.553 23,21 L23,7 C23,6.447 22.553,6 22,6 Z M3,20 L21,20 L21,8 L3,8 L3,20 Z M4,10 L4,18 C4,18.553 4.447,19 5,19 L14,19 C14.553,19 15,18.553 15,18 L15,10 C15,9.447 14.553,9 14,9 L5,9 C4.447,9 4,9.447 4,10 Z M6,17 L13,17 L13,11 L6,11 L6,17 Z M17,16 L19,16 C19.553,16 20,15.553 20,15 C20,14.447 19.553,14 19,14 L17,14 C16.447,14 16,14.447 16,15 C16,15.553 16.447,16 17,16 Z M17,19 L19,19 C19.553,19 20,18.553 20,18 C20,17.447 19.553,17 19,17 L17,17 C16.447,17 16,17.447 16,18 C16,18.553 16.447,19 17,19 Z M18,13 C19.103,13 20,12.103 20,11 C20,9.897 19.103,9 18,9 C16.897,9 16,9.897 16,11 C16,12.103 16.897,13 18,13 Z"></path>
            </g>
        </g>
    </g>
</svg>