<?xml version="1.0" encoding="UTF-8" standalone="no"?>
<svg width="24px" height="24px" viewBox="0 0 24 24" version="1.1" xmlns="http://www.w3.org/2000/svg" xmlns:xlink="http://www.w3.org/1999/xlink">
    <!-- Generator: sketchtool 3.6.1 (26313) - http://www.bohemiancoding.com/sketch -->
    <title>9E4CE18B-E99E-46D1-AEB4-3BD2BC8C4338</title>
    <desc>Created with sketchtool.</desc>
    <defs></defs>
    <g id="Guidelines" stroke="none" stroke-width="1" fill="none" fill-rule="evenodd">
        <g id="Icons" transform="translate(-10.000000, -50.000000)" fill="#000000">
            <g id="ic_dashboard" transform="translate(10.000000, 50.000000)">
                <path d="M13.47,16 L17.412,9.173 C17.688,8.694 17.524,8.083 17.046,7.807 C16.567,7.53 15.956,7.692 15.68,8.173 L11.16,16 L3.949,16 C3.347,14.793 3,13.438 3,12 C3,7.037 7.037,3 12,3 C16.963,3 21,7.037 21,12 C21,13.438 20.652,14.793 20.05,16 L13.47,16 Z M12,21 C9.343,21 6.959,19.836 5.311,18 L18.689,18 C17.04,19.836 14.657,21 12,21 L12,21 Z M12,1 C5.934,1 1,5.935 1,12 C1,18.065 5.934,23 12,23 C18.065,23 23,18.065 23,12 C23,5.935 18.065,1 12,1 L12,1 Z" id="Fill-21"></path>
            </g>
        </g>
    </g>
</svg>