<?xml version="1.0" encoding="UTF-8" standalone="no"?>
<svg width="24px" height="24px" viewBox="0 0 24 24" version="1.1" xmlns="http://www.w3.org/2000/svg" xmlns:xlink="http://www.w3.org/1999/xlink">
    <!-- Generator: sketchtool 3.7 (28169) - http://www.bohemiancoding.com/sketch -->
    <title>5E3EBC3B-5EB6-447E-9193-9FBD4C4EE008</title>
    <desc>Created with sketchtool.</desc>
    <defs></defs>
    <g id="Guidelines" stroke="none" stroke-width="1" fill="none" fill-rule="evenodd">
        <g id="Icons" transform="translate(-160.000000, -10.000000)" fill="#141618">
            <g id="ic_delete" transform="translate(160.000000, 10.000000)">
                <path d="M10,10 C9.447,10 9,10.447 9,11 L9,17 C9,17.553 9.447,18 10,18 C10.553,18 11,17.553 11,17 L11,11 C11,10.447 10.553,10 10,10 Z M14,10 C13.447,10 13,10.447 13,11 L13,17 C13,17.553 13.447,18 14,18 C14.553,18 15,17.553 15,17 L15,11 C15,10.447 14.553,10 14,10 Z M18,20 L6,20 L6,8 L7,8 L17,8 L18,8 L18,20 Z M9,5 C9,4.448 9.448,4 10,4 L14,4 C14.552,4 15,4.448 15,5 L15,6 L9,6 L9,5 Z M21,6 L19,6 L17,6 L17,5 C17,3.346 15.654,2 14,2 L10,2 C8.346,2 7,3.346 7,5 L7,6 L5,6 L3,6 C2.447,6 2,6.447 2,7 C2,7.553 2.447,8 3,8 L4,8 L4,21 C4,21.553 4.447,22 5,22 L19,22 C19.553,22 20,21.553 20,21 L20,8 L21,8 C21.553,8 22,7.553 22,7 C22,6.447 21.553,6 21,6 L21,6 Z" id="Fill-1"></path>
            </g>
        </g>
    </g>
</svg>