<?xml version="1.0" encoding="UTF-8" standalone="no"?>
<svg width="24px" height="24px" viewBox="0 0 24 24" version="1.1" xmlns="http://www.w3.org/2000/svg" xmlns:xlink="http://www.w3.org/1999/xlink">
    <!-- Generator: sketchtool 3.8.3 (29802) - http://www.bohemiancoding.com/sketch -->
    <title>0CBD513F-7F69-46C7-A2D0-53F697CA46BC</title>
    <desc>Created with sketchtool.</desc>
    <defs></defs>
    <g id="Guidelines" stroke="none" stroke-width="1" fill="none" fill-rule="evenodd">
        <g id="00c_Icons" transform="translate(-910.000000, -176.000000)" fill="#2A3034">
            <g id="ic_events" transform="translate(910.000000, 176.000000)">
                <g transform="translate(1.000000, 1.000000)" id="Combined-Shape">
                    <path d="M21.7071,7.4212 C22.0981,7.0302 22.0981,6.3972 21.7071,6.0072 L15.9931,0.2932 C15.6021,-0.0978 14.9701,-0.0978 14.5791,0.2932 C14.1811,0.6912 13.5341,0.6912 13.1361,0.2932 C12.7451,-0.0978 12.1121,-0.0978 11.7221,0.2932 L0.2931,11.7222 C-0.0979,12.1122 -0.0979,12.7452 0.2931,13.1362 C0.6901,13.5342 0.6901,14.1802 0.2931,14.5792 C-0.0979,14.9702 -0.0979,15.6022 0.2931,15.9932 L6.0071,21.7072 C6.3971,22.0972 7.0301,22.0972 7.4211,21.7072 C7.8191,21.3082 8.4661,21.3082 8.8641,21.7072 C9.0601,21.9022 9.3151,22.0002 9.5711,22.0002 C9.8271,22.0002 10.0831,21.9022 10.2781,21.7072 L21.7071,10.2782 C22.0981,9.8882 22.0981,9.2552 21.7071,8.8642 C21.3101,8.4662 21.3101,7.8192 21.7071,7.4212 Z M19.7061,9.4512 L9.4511,19.7062 C8.6271,19.3112 7.6581,19.3112 6.8341,19.7062 L2.2941,15.1662 C2.6891,14.3422 2.6891,13.3732 2.2941,12.5492 L12.5491,2.2942 C13.3731,2.6882 14.3421,2.6882 15.1661,2.2942 L19.7061,6.8342 C19.3101,7.6582 19.3101,8.6272 19.7061,9.4512 Z M12.9103,10.0267 L12.9543,8.2247 C12.9593,8.0327 12.8533,7.8557 12.6833,7.7677 C12.5133,7.6797 12.3073,7.6977 12.1543,7.8117 L10.6893,8.9147 L8.9843,8.3537 C8.6273,8.2357 8.2363,8.6267 8.3533,8.9847 L8.9143,10.6887 L7.8123,12.1547 C7.6973,12.3077 7.6793,12.5137 7.7673,12.6837 C7.8553,12.8537 8.0333,12.9597 8.2243,12.9547 L10.0263,12.9107 L11.0473,14.3657 C11.1563,14.5217 11.3443,14.6017 11.5313,14.5737 C11.7203,14.5447 11.8743,14.4117 11.9333,14.2327 L12.4923,12.4927 L14.2323,11.9337 C14.3093,11.9077 14.3773,11.8657 14.4333,11.8107 C14.5063,11.7367 14.5573,11.6387 14.5743,11.5317 C14.6023,11.3447 14.5223,11.1567 14.3663,11.0477 L12.9103,10.0267 Z"></path>
                </g>
            </g>
        </g>
    </g>
</svg>