<?xml version="1.0" encoding="UTF-8" standalone="no"?>
<svg width="24px" height="24px" viewBox="0 0 24 24" version="1.1" xmlns="http://www.w3.org/2000/svg" xmlns:xlink="http://www.w3.org/1999/xlink">
    <!-- Generator: sketchtool 3.7 (28169) - http://www.bohemiancoding.com/sketch -->
    <title>A5F97977-0C6E-4F07-8EF6-5D3EAA3B8B66</title>
    <desc>Created with sketchtool.</desc>
    <defs></defs>
    <g id="Guidelines" stroke="none" stroke-width="1" fill="none" fill-rule="evenodd">
        <g id="Icons" transform="translate(-100.000000, -10.000000)" fill="#141618">
            <g id="ic_edit" transform="translate(100.000000, 10.000000)">
                <path d="M18.5435819,7.639 L17.4355819,8.747 L15.2185819,6.531 L16.3265819,5.422 C16.9145819,4.834 17.9555819,4.834 18.5435819,5.422 C18.8375819,5.716 18.9995819,6.11 18.9995819,6.531 C18.9995819,6.952 18.8375819,7.345 18.5435819,7.639 L18.5435819,7.639 Z M7.87658186,18.306 L5.21658186,18.749 L5.65958186,16.089 L13.8045819,7.945 L16.0215819,10.161 L7.87658186,18.306 Z M19.9575819,4.008 C18.6155819,2.664 16.2545819,2.664 14.9125819,4.008 L4.01958186,14.902 C3.87158186,15.049 3.77358186,15.239 3.73958186,15.445 L3.01358186,19.802 C2.96058186,20.12 3.06458186,20.445 3.29258186,20.673 C3.48158186,20.863 3.73658186,20.966 3.99958186,20.966 C4.05458186,20.966 4.10858186,20.961 4.16358186,20.952 L8.52158186,20.226 C8.72758186,20.192 8.91658186,20.094 9.06458186,19.947 L19.9575819,9.053 C20.6295819,8.382 20.9995819,7.486 20.9995819,6.531 C20.9995819,5.576 20.6295819,4.679 19.9575819,4.008 L19.9575819,4.008 Z" id="Fill-91"></path>
            </g>
        </g>
    </g>
</svg>