<?xml version="1.0" encoding="UTF-8" standalone="no"?>
<svg width="24px" height="24px" viewBox="0 0 24 24" version="1.1" xmlns="http://www.w3.org/2000/svg" xmlns:xlink="http://www.w3.org/1999/xlink">
    <!-- Generator: sketchtool 3.6.1 (26313) - http://www.bohemiancoding.com/sketch -->
    <title>E863A689-257A-4587-B848-BE383612A5FA</title>
    <desc>Created with sketchtool.</desc>
    <defs></defs>
    <g id="Guidelines" stroke="none" stroke-width="1" fill="none" fill-rule="evenodd">
        <g id="Icons" transform="translate(-460.000000, -10.000000)" fill="#000000">
            <g id="ic_help_circle" transform="translate(460.000000, 10.000000)">
                <path d="M12,1 C5.935,1 1,5.935 1,12 C1,18.065 5.935,23 12,23 C18.065,23 23,18.065 23,12 C23,5.935 18.065,1 12,1 Z M12,21 C7.037,21 3,16.963 3,12 C3,7.037 7.037,3 12,3 C16.963,3 21,7.037 21,12 C21,16.963 16.963,21 12,21 Z M12.714,5.06124885 C11.535,4.85524885 10.33,5.17424885 9.424,5.93724885 C8.52,6.69924885 8,7.81524885 8,8.99924885 C8,9.55224885 8.447,9.99924885 9,9.99924885 C9.553,9.99924885 10,9.55224885 10,8.99924885 C10,8.40624885 10.26,7.84824885 10.712,7.46724885 C11.171,7.08124885 11.756,6.92724885 12.372,7.03224885 C13.159,7.16824885 13.831,7.84024885 13.968,8.62724885 C14.119,9.50024885 13.726,10.3352489 12.964,10.7532489 C11.753,11.4192489 11,12.7622489 11,14.2562489 L11,14.9992489 C11,15.5522489 11.447,15.9992489 12,15.9992489 C12.553,15.9992489 13,15.5522489 13,14.9992489 L13,14.2562489 C13,13.5032489 13.364,12.8162489 13.928,12.5062489 C15.425,11.6832489 16.234,9.98824885 15.939,8.28624885 C15.657,6.66824885 14.331,5.34224885 12.714,5.06124885 Z M12,17 C11.448,17 11,17.448 11,18 C11,18.552 11.448,19 12,19 C12.552,19 13,18.552 13,18 C13,17.448 12.552,17 12,17 Z" id="Combined-Shape"></path>
            </g>
        </g>
    </g>
</svg>