<?xml version="1.0" encoding="UTF-8" standalone="no"?>
<svg width="48px" height="48px" viewBox="0 0 48 48" version="1.1" xmlns="http://www.w3.org/2000/svg" xmlns:xlink="http://www.w3.org/1999/xlink">
    <!-- Generator: sketchtool 3.8.3 (29802) - http://www.bohemiancoding.com/sketch -->
    <title>198AD147-DD1C-4CA0-BA38-CFA848A7CD6B</title>
    <desc>Created with sketchtool.</desc>
    <defs></defs>
    <g id="Guidelines" stroke="none" stroke-width="1" fill="none" fill-rule="evenodd" stroke-linecap="round" stroke-linejoin="round">
        <g id="00c_Icons" transform="translate(-676.000000, -644.000000)" stroke="#2A3034" stroke-width="2">
            <g id="ic_help_contact" transform="translate(676.000000, 644.000000)">
                <g transform="translate(6.000000, 6.000000)">
                    <path d="M13.5973,17.5001 C14.4413,16.6551 14.5113,15.3541 13.7503,14.5931 L11.6853,12.5281 C10.9253,11.7681 9.6233,11.8361 8.7793,12.6811 L7.5203,13.9401 C6.4293,15.0311 6.1833,16.6571 6.9273,17.8391 C10.1253,22.9071 14.5153,27.2971 19.5843,30.4951 C20.7623,31.2381 22.3933,30.9921 23.4833,29.9031 L24.7423,28.6441 C25.5863,27.7991 25.6553,26.4981 24.8943,25.7371 L22.8293,23.6721 C22.0693,22.9121 20.7683,22.9801 19.9233,23.8251 L19.1583,24.5901 C16.8703,22.7571 14.6663,20.5521 12.8333,18.2641 L13.5973,17.5001 L13.5973,17.5001 Z" id="Stroke-85"></path>
                    <path d="M18.5,5 C25.68,5 31.5,10.82 31.5,18" id="Stroke-87"></path>
                    <path d="M18.5,9.5217 C23.182,9.5217 26.978,13.3177 26.978,17.9997" id="Stroke-89"></path>
                    <path d="M18.5,14.0434 C20.685,14.0434 22.457,15.8144 22.457,18.0004" id="Stroke-91"></path>
                    <path d="M23.5,30 C25.375,30.958 27.188,36 18.5,36 C8.559,36 0.5,27.941 0.5,18 C0.5,8.059 8.559,0 18.5,0 C28.441,0 36.5,8.059 36.5,18 C36.5,23.798 33.758,28.957 29.5,32.249" id="Stroke-93"></path>
                </g>
            </g>
        </g>
    </g>
</svg>