<?xml version="1.0" encoding="UTF-8" standalone="no"?>
<svg width="24px" height="24px" viewBox="0 0 24 24" version="1.1" xmlns="http://www.w3.org/2000/svg" xmlns:xlink="http://www.w3.org/1999/xlink">
    <!-- Generator: sketchtool 3.8.3 (29802) - http://www.bohemiancoding.com/sketch -->
    <title>653E64DD-1556-41F2-BD6A-B5BB24C94BD3</title>
    <desc>Created with sketchtool.</desc>
    <defs></defs>
    <g id="Guidelines" stroke="none" stroke-width="1" fill="none" fill-rule="evenodd">
        <g id="00c_Icons" transform="translate(-910.000000, -136.000000)" fill="#2A3034">
            <g id="ic_history" transform="translate(910.000000, 136.000000)">
                <path d="M12,2 C9.344,2 6.85,3.06 5,4.884 L5,3 C5,2.447 4.553,2 4,2 C3.447,2 3,2.447 3,3 L3,7 C3,7.553 3.447,8 4,8 L8,8 C8.553,8 9,7.553 9,7 C9,6.447 8.553,6 8,6 L6.717,6 C8.16,4.727 10.027,4 12,4 C16.411,4 20,7.589 20,12 C20,16.411 16.411,20 12,20 C7.589,20 4,16.411 4,12 C4,11.447 3.553,11 3,11 C2.447,11 2,11.447 2,12 C2,17.514 6.486,22 12,22 C17.514,22 22,17.514 22,12 C22,6.486 17.514,2 12,2 Z M12,6 C11.447,6 11,6.447 11,7 L11,12 C11,12.13 11.026,12.26 11.077,12.382 C11.128,12.505 11.201,12.616 11.294,12.708 L14.293,15.707 C14.488,15.902 14.744,16 15,16 C15.256,16 15.512,15.902 15.707,15.707 C16.098,15.316 16.098,14.684 15.707,14.293 L13,11.586 L13,7 C13,6.447 12.553,6 12,6 Z"></path>
            </g>
        </g>
    </g>
</svg>