<?xml version="1.0" encoding="UTF-8" standalone="no"?>
<svg width="24px" height="24px" viewBox="0 0 24 24" version="1.1" xmlns="http://www.w3.org/2000/svg" xmlns:xlink="http://www.w3.org/1999/xlink">
    <!-- Generator: sketchtool 3.8.3 (29802) - http://www.bohemiancoding.com/sketch -->
    <title>35700696-C1EE-4CA6-B235-9163C9CED069</title>
    <desc>Created with sketchtool.</desc>
    <defs></defs>
    <g id="Guidelines" stroke="none" stroke-width="1" fill="none" fill-rule="evenodd">
        <g id="00c_Icons" transform="translate(-760.000000, -176.000000)" fill="#2A3034">
            <g id="ic_home" transform="translate(760.000000, 176.000000)">
                <path d="M19.00064,19 L15.00064,19 L15.00064,13 C15.00064,12.447 14.51164,12 13.95864,12 L9.95863997,12 C9.40563997,12 9.00063997,12.447 9.00063997,13 L9.00063997,19 L5.00063997,19 L5.00063997,8.618 L12.00064,5.118 L19.00064,8.618 L19.00064,19 Z M11.00064,19 L13.00064,19 L13.00064,14 L11.00064,14 L11.00064,19 Z M22.44764,8.105 L19.00064,6.382 L19.00064,4 C19.00064,3.447 18.55364,3 18.00064,3 C17.44764,3 17.00064,3.447 17.00064,4 L17.00064,5.382 L12.44764,3.105 C12.16664,2.965 11.83464,2.965 11.55364,3.105 L1.55363997,8.105 C1.05963997,8.353 0.858639966,8.953 1.10563997,9.447 C1.35363997,9.941 1.95363997,10.141 2.44763997,9.895 L3.00063997,9.618 L3.00063997,20 C3.00063997,20.553 3.44763997,21 4.00063997,21 L9.95863997,21 L13.95864,21 L20.00064,21 C20.55364,21 21.00064,20.553 21.00064,20 L21.00064,9.618 L21.55364,9.895 C21.69664,9.966 21.84964,10 21.99964,10 C22.36664,10 22.71964,9.798 22.89564,9.447 C23.14264,8.953 22.94164,8.353 22.44764,8.105 L22.44764,8.105 Z"></path>
            </g>
        </g>
    </g>
</svg>