<?xml version="1.0" encoding="UTF-8" standalone="no"?>
<svg width="24px" height="24px" viewBox="0 0 24 24" version="1.1" xmlns="http://www.w3.org/2000/svg" xmlns:xlink="http://www.w3.org/1999/xlink">
    <!-- Generator: sketchtool 3.8.3 (29802) - http://www.bohemiancoding.com/sketch -->
    <title>0CBD513F-7F69-46C7-A2D0-53F697CA46BC</title>
    <desc>Created with sketchtool.</desc>
    <defs></defs>
    <g id="Guidelines" stroke="none" stroke-width="1" fill="none" fill-rule="evenodd">
        <g id="00c_Icons" transform="translate(-820.000000, -136.000000)" fill="#2A3034">
            <g id="ic_owner" transform="translate(820.000000, 136.000000)">
                <path d="M20,18 L20,5.00087166 C20,4.44463086 19.5518945,4 18.9991283,4 L5.00087166,4 C4.44463086,4 4,4.4481055 4,5.00087166 L4,18 L20,18 Z M2,2.99180311 C2,2.44404538 2.45530558,2 2.99180311,2 L21.0081969,2 C21.5559546,2 22,2.45530558 22,2.99180311 L22,21.0081969 C22,21.5559546 21.5446944,22 21.0081969,22 L2.99180311,22 C2.44404538,22 2,21.5446944 2,21.0081969 L2,2.99180311 Z M9.5,8.5 C9.5,7.12125 10.62125,6 12,6 C13.379375,6 14.5,7.12125 14.5,8.5 C14.5,9.87875 13.379375,11 12,11 C10.62125,11 9.5,9.87875 9.5,8.5 Z M7.5,16 C7.75958814,13.548 9.46788211,12 11.9997166,12 C14.5321179,12 16.2404119,13.548 16.5,16 L7.5,16 Z" id="ic_collection"></path>
            </g>
        </g>
    </g>
</svg>