<?xml version="1.0" encoding="UTF-8" standalone="no"?>
<svg width="24px" height="24px" viewBox="0 0 24 24" version="1.1" xmlns="http://www.w3.org/2000/svg" xmlns:xlink="http://www.w3.org/1999/xlink">
    <!-- Generator: sketchtool 3.8.3 (29802) - http://www.bohemiancoding.com/sketch -->
    <title>13445FBB-2957-467B-A7F5-E6A1F1DD25C7</title>
    <desc>Created with sketchtool.</desc>
    <defs></defs>
    <g id="Guidelines" stroke="none" stroke-width="1" fill="none" fill-rule="evenodd">
        <g id="00c_Icons" transform="translate(-820.000000, -96.000000)" fill="#2A3034">
            <g id="ic_open_circle" transform="translate(820.000000, 96.000000)">
                <path d="M14.29325,10.29325 L12.00025,12.58625 L9.70725,10.29325 C9.31625,9.90225 8.68425,9.90225 8.29325,10.29325 C7.90225,10.68425 7.90225,11.31625 8.29325,11.70725 L11.29325,14.70725 C11.48825,14.90225 11.74425,15.00025 12.00025,15.00025 C12.25625,15.00025 12.51225,14.90225 12.70725,14.70725 L15.70725,11.70725 C16.09825,11.31625 16.09825,10.68425 15.70725,10.29325 C15.31625,9.90225 14.68425,9.90225 14.29325,10.29325 M12,21 C7.037,21 3,16.963 3,12 C3,7.037 7.037,3 12,3 C16.963,3 21,7.037 21,12 C21,16.963 16.963,21 12,21 M12,1 C5.935,1 1,5.935 1,12 C1,18.065 5.935,23 12,23 C18.065,23 23,18.065 23,12 C23,5.935 18.065,1 12,1" id="Fill-31"></path>
            </g>
        </g>
    </g>
</svg>