<?xml version="1.0" standalone="no"?>
<!DOCTYPE svg PUBLIC "-//W3C//DTD SVG 20010904//EN"
 "http://www.w3.org/TR/2001/REC-SVG-20010904/DTD/svg10.dtd">
<svg version="1.0" xmlns="http://www.w3.org/2000/svg"
 width="640.000000pt" height="500.000000pt" viewBox="0 0 640.000000 500.000000"
 preserveAspectRatio="xMidYMid meet">

<g transform="translate(0.000000,500.000000) scale(0.100000,-0.100000)"
fill="#000000" stroke="none">
<path d="M5060 4769 c-97 -15 -115 -23 -113 -50 3 -53 21 -79 53 -79 47 0 95
-24 122 -61 24 -33 307 -895 322 -981 12 -66 -19 -137 -70 -166 -14 -8 -15
-14 -4 -48 7 -21 16 -43 20 -48 18 -19 203 87 283 163 88 82 164 212 198 338
78 284 -105 696 -380 857 -126 74 -274 99 -431 75z"/>
<path d="M4535 4611 c-148 -48 -280 -94 -293 -102 -30 -18 -39 -56 -19 -76 9
-9 40 -18 71 -21 49 -4 56 -7 70 -36 22 -41 356 -1082 356 -1108 0 -10 -20
-38 -45 -60 -50 -46 -56 -70 -22 -93 22 -14 42 -9 324 81 l300 97 -71 221
c-40 121 -141 438 -226 703 -85 266 -159 482 -165 482 -5 0 -131 -40 -280 -88z"/>
<path d="M3325 4221 c-165 -53 -310 -103 -322 -109 -13 -7 -26 -24 -29 -39 -9
-36 24 -63 80 -63 22 0 46 -4 52 -8 16 -10 364 -1092 364 -1131 0 -28 -31 -71
-52 -71 -4 0 -12 -10 -19 -21 -17 -32 3 -69 38 -69 15 0 156 41 314 92 l287
92 -14 40 c-169 516 -384 1201 -384 1223 0 22 10 39 40 66 43 38 46 47 30 78
-8 14 -21 19 -48 18 -20 0 -172 -44 -337 -98z"/>
<path d="M2220 3888 c-36 -6 -67 -12 -69 -13 -1 -2 5 -26 14 -54 14 -43 20
-51 42 -51 40 0 93 -30 109 -63 21 -40 332 -1007 340 -1056 9 -55 -2 -89 -37
-122 -29 -27 -30 -30 -19 -66 17 -54 23 -57 66 -37 202 93 354 276 400 482 22
99 15 286 -15 389 -95 331 -315 548 -598 592 -83 13 -142 12 -233 -1z"/>
<path d="M1971 3804 c-200 -109 -329 -271 -377 -472 -21 -92 -15 -271 15 -385
60 -227 210 -430 392 -527 136 -72 325 -96 472 -58 34 8 38 12 33 33 -16 62
-24 72 -64 78 -41 7 -85 36 -102 67 -23 44 -340 1047 -340 1078 0 40 22 85 51
106 21 14 21 18 9 61 -7 25 -16 47 -19 49 -3 2 -35 -12 -70 -30z"/>
<path d="M1123 3533 c-7 -2 -22 -24 -32 -49 l-20 -44 -114 0 c-95 0 -212 -12
-223 -23 -2 -1 4 -26 12 -54 12 -41 18 -50 34 -46 38 10 156 -17 226 -51 72
-36 147 -106 189 -177 18 -29 26 -34 59 -34 30 0 43 6 59 27 l20 27 -62 193
c-34 106 -69 203 -77 216 -14 21 -42 27 -71 15z"/>
<path d="M4364 3526 c-39 -17 -44 -31 -44 -123 0 -163 -57 -284 -168 -358
l-40 -27 15 -44 c13 -38 18 -44 37 -38 98 29 403 128 408 133 8 7 -128 438
-144 459 -13 15 -25 15 -64 -2z"/>
<path d="M527 3337 c-93 -50 -148 -93 -202 -158 -122 -146 -146 -324 -67 -493
57 -123 151 -198 297 -241 81 -23 131 -30 434 -55 178 -15 237 -47 255 -139
11 -61 -10 -111 -76 -174 l-60 -58 12 -44 c7 -25 16 -45 21 -45 20 0 122 51
176 88 70 48 160 140 196 203 112 191 82 423 -72 561 -112 101 -248 139 -546
153 -212 10 -301 40 -331 111 -30 71 -14 137 47 199 l39 41 -16 47 c-9 26 -19
47 -22 47 -4 0 -42 -19 -85 -43z"/>
<path d="M5485 2993 c-77 -25 -142 -47 -144 -49 -2 -2 2 -24 9 -49 12 -42 19
-49 69 -75 81 -41 140 -107 217 -245 6 -10 22 -28 36 -38 24 -18 27 -18 56 -3
17 9 35 24 40 34 7 12 -12 82 -62 239 -39 122 -74 224 -76 226 -3 2 -68 -16
-145 -40z"/>
<path d="M4970 2828 c-135 -44 -247 -82 -249 -84 -2 -2 87 -284 198 -628 110
-343 201 -634 201 -645 0 -12 -12 -31 -26 -44 -39 -32 -64 -60 -64 -69 0 -17
41 -48 62 -48 26 0 609 185 650 206 41 21 53 50 33 80 -13 20 -24 24 -63 24
-26 0 -53 4 -59 8 -7 4 -63 163 -124 352 -254 791 -300 930 -307 929 -4 -1
-117 -37 -252 -81z"/>
<path d="M4458 2663 c-76 -25 -138 -50 -137 -57 0 -6 33 -110 72 -231 67 -202
75 -220 100 -229 22 -8 32 -6 55 11 l27 21 -3 117 c-3 134 9 210 45 277 24 44
25 48 11 89 -8 24 -18 44 -24 45 -5 1 -71 -18 -146 -43z"/>
<path d="M3943 2496 c-83 -28 -161 -60 -172 -70 -41 -37 -21 -73 46 -83 74
-11 135 -58 172 -131 10 -20 69 -194 131 -387 97 -303 113 -362 118 -436 7
-130 -11 -175 -108 -269 l-77 -75 14 -42 c8 -24 20 -43 25 -43 22 0 107 62
151 109 85 91 123 199 115 329 -4 63 -26 144 -126 454 -109 337 -122 385 -122
448 0 81 14 117 66 166 25 23 32 37 27 50 -18 49 -74 45 -260 -20z"/>
<path d="M3118 2232 c-163 -54 -310 -107 -327 -120 -55 -41 -31 -92 43 -92 23
0 50 -6 59 -12 10 -8 79 -208 177 -513 109 -338 169 -510 186 -533 62 -81 169
-116 354 -117 106 0 142 4 235 29 61 15 114 32 119 36 4 5 1 31 -9 59 -15 45
-20 51 -45 51 -62 0 -127 44 -155 105 -17 36 -319 975 -330 1023 -6 31 -3 37
39 76 25 23 46 49 46 57 0 25 -34 49 -66 48 -16 0 -163 -44 -326 -97z"/>
<path d="M422 2277 c-12 -13 -22 -30 -22 -38 0 -32 135 -430 155 -455 30 -38
68 -28 95 27 12 22 32 44 46 49 14 6 78 10 143 10 95 0 168 10 188 25 2 1 -4
23 -13 48 -15 43 -19 47 -49 47 -149 0 -313 95 -405 235 -18 28 -40 56 -48 63
-25 19 -66 14 -90 -11z"/>
<path d="M1991 1889 c-30 -5 -56 -11 -58 -12 -2 -2 4 -27 12 -55 15 -49 18
-52 48 -52 46 0 94 -33 112 -77 9 -21 87 -256 173 -523 179 -552 183 -573 124
-632 l-32 -34 16 -47 c9 -26 18 -47 21 -47 3 0 35 16 72 35 139 73 263 201
323 335 49 108 61 178 55 325 -5 112 -10 144 -40 236 -93 290 -274 476 -523
539 -85 21 -207 25 -303 9z"/>
<path d="M1766 1814 c-212 -109 -348 -276 -392 -485 -21 -97 -14 -263 16 -379
28 -106 117 -292 160 -330 3 -3 21 -23 39 -45 76 -88 193 -165 308 -201 69
-22 250 -30 332 -14 l68 13 -15 47 c-15 46 -17 48 -67 59 -30 7 -62 22 -74 35
-23 25 -361 1054 -361 1100 0 36 18 77 46 107 24 25 24 29 13 73 -6 25 -14 46
-18 46 -3 0 -28 -12 -55 -26z"/>
</g>
</svg>
