<?xml version="1.0" encoding="UTF-8" standalone="no"?>
<svg width="24px" height="24px" viewBox="0 0 24 24" version="1.1" xmlns="http://www.w3.org/2000/svg" xmlns:xlink="http://www.w3.org/1999/xlink">
    <!-- Generator: sketchtool 3.8.3 (29802) - http://www.bohemiancoding.com/sketch -->
    <title>4A51171D-2600-4E28-8CAB-697F2BF245C3</title>
    <desc>Created with sketchtool.</desc>
    <defs></defs>
    <g id="Guidelines" stroke="none" stroke-width="1" fill="none" fill-rule="evenodd">
        <g id="00c_Icons" transform="translate(-940.000000, -176.000000)" fill="#2A3034">
            <g id="ic_product_set" transform="translate(940.000000, 176.000000)">
                <path d="M22,21 L13,21 L13,15 L15,15 L15,17 C15,17.553 15.447,18 16,18 L19,18 C19.553,18 20,17.553 20,17 L20,15 L22,15 L22,21 Z M2,15 L4,15 L4,17 C4,17.553 4.447,18 5,18 L8,18 C8.553,18 9,17.553 9,17 L9,15 L11,15 L11,21 L2,21 L2,15 Z M2.721,12 L4,12 L4,13 L2.388,13 L2.721,12 Z M6.721,4 L14.279,4 L14.612,5 L12,5 L9,5 L6.388,5 L6.721,4 Z M17,16 L18,16 L18,15 L17,15 L17,16 Z M10,8 L11,8 L11,7 L10,7 L10,8 Z M6,16 L7,16 L7,15 L6,15 L6,16 Z M12,13 L8,13 L6,13 L6,11 L6,7 L8,7 L8,9 C8,9.553 8.447,10 9,10 L12,10 C12.553,10 13,9.553 13,9 L13,7 L15,7 L15,11 L15,13 L12,13 Z M21.279,12 L21.612,13 L19,13 L17,13 L17,12 L21.279,12 Z M23.995,13.973 C23.992,13.876 23.98,13.778 23.948,13.684 L22.948,10.684 C22.812,10.275 22.431,10 22,10 L17,10 L17,6 C17,5.991 16.995,5.983 16.995,5.973 C16.992,5.876 16.98,5.778 16.948,5.684 L15.948,2.684 C15.813,2.275 15.431,2 15,2 L6,2 C5.569,2 5.188,2.275 5.052,2.684 L4.052,5.684 C4.02,5.778 4.008,5.876 4.005,5.973 C4.005,5.983 4,5.991 4,6 L4,10 L2,10 C1.569,10 1.188,10.275 1.052,10.684 L0.052,13.684 C0.02,13.778 0.008,13.876 0.005,13.973 C0.005,13.983 0,13.991 0,14 L0,22 C0,22.553 0.447,23 1,23 L12,23 L23,23 C23.553,23 24,22.553 24,22 L24,14 C24,13.991 23.995,13.983 23.995,13.973 L23.995,13.973 Z"></path>
            </g>
        </g>
    </g>
</svg>