<?xml version="1.0" encoding="UTF-8" standalone="no"?>
<svg width="24px" height="24px" viewBox="0 0 24 24" version="1.1" xmlns="http://www.w3.org/2000/svg" xmlns:xlink="http://www.w3.org/1999/xlink">
    <!-- Generator: sketchtool 3.8.3 (29802) - http://www.bohemiancoding.com/sketch -->
    <title>FE8E3A3D-1A62-4034-9CBA-A4C3B322F484</title>
    <desc>Created with sketchtool.</desc>
    <defs></defs>
    <g id="Guidelines" stroke="none" stroke-width="1" fill="none" fill-rule="evenodd">
        <g id="00c_Icons" transform="translate(-940.000000, -136.000000)" fill="#2A3034">
            <g id="ic_product" transform="translate(940.000000, 136.000000)">
                <path d="M22.93,6.653 C22.917,6.618 22.9,6.587 22.883,6.554 C22.865,6.518 22.854,6.479 22.832,6.445 L20.832,3.445 C20.646,3.167 20.334,3 20,3 L4,3 C3.666,3 3.354,3.167 3.168,3.445 L1.168,6.445 C1.146,6.479 1.135,6.518 1.117,6.554 C1.1,6.587 1.083,6.618 1.07,6.653 C1.028,6.764 1,6.88 1,7 L1,21 C1,21.553 1.447,22 2,22 L22,22 C22.553,22 23,21.553 23,21 L23,7 C23,6.88 22.972,6.764 22.93,6.653 Z M3,20 L3,8 L9,8 L9,10 C9,10.553 9.447,11 10,11 L14,11 C14.553,11 15,10.553 15,10 L15,8 L21,8 L21,20 L3,20 Z M11,9 L13,9 L13,8 L11,8 L11,9 Z M4.535,5 L19.465,5 L20.132,6 L14,6 L10,6 L3.868,6 L4.535,5 Z M18,13 L6,13 C5.447,13 5,13.447 5,14 C5,14.553 5.447,15 6,15 L18,15 C18.553,15 19,14.553 19,14 C19,13.447 18.553,13 18,13 Z M16,16 L8,16 C7.447,16 7,16.447 7,17 C7,17.553 7.447,18 8,18 L16,18 C16.553,18 17,17.553 17,17 C17,16.447 16.553,16 16,16 Z"></path>
            </g>
        </g>
    </g>
</svg>