<?xml version="1.0" encoding="UTF-8" standalone="no"?>
<svg width="24px" height="24px" viewBox="0 0 24 24" version="1.1" xmlns="http://www.w3.org/2000/svg" xmlns:xlink="http://www.w3.org/1999/xlink">
    <!-- Generator: sketchtool 3.6.1 (26313) - http://www.bohemiancoding.com/sketch -->
    <title>8190A0D0-3696-48A0-BC2E-8AFF71467A95</title>
    <desc>Created with sketchtool.</desc>
    <defs></defs>
    <g id="Guidelines" stroke="none" stroke-width="1" fill="none" fill-rule="evenodd">
        <g id="Icons" transform="translate(-100.000000, -50.000000)" fill="#000000">
            <g id="ic_reports" transform="translate(100.000000, 50.000000)">
                <path d="M3,12 C3,7.375 6.507,3.558 11,3.059 L11,12 C11,12.13 11.026,12.26 11.077,12.382 C11.128,12.505 11.201,12.616 11.294,12.708 L17.611,19.025 C16.071,20.258 14.122,21 12,21 C7.037,21 3,16.963 3,12 L3,12 Z M13,3.059 C14.733,3.252 16.316,3.939 17.611,4.975 L13,9.586 L13,3.059 Z M19.025,17.611 L13.414,12 L19.025,6.389 C20.258,7.929 21,9.878 21,12 C21,14.122 20.258,16.071 19.025,17.611 L19.025,17.611 Z M12,1 C5.935,1 1,5.935 1,12 C1,18.065 5.935,23 12,23 C18.065,23 23,18.065 23,12 C23,5.935 18.065,1 12,1 L12,1 Z" id="Fill-9"></path>
            </g>
        </g>
    </g>
</svg>