<?xml version="1.0" encoding="UTF-8" standalone="no"?>
<svg width="24px" height="24px" viewBox="0 0 24 24" version="1.1" xmlns="http://www.w3.org/2000/svg" xmlns:xlink="http://www.w3.org/1999/xlink">
    <!-- Generator: sketchtool 3.7 (28169) - http://www.bohemiancoding.com/sketch -->
    <title>F81CFB16-19D8-4DC1-B859-633C3906FC0E</title>
    <desc>Created with sketchtool.</desc>
    <defs></defs>
    <g id="Guidelines" stroke="none" stroke-width="1" fill="none" fill-rule="evenodd">
        <g id="Icons" transform="translate(-70.000000, -10.000000)" fill="#141618">
            <g id="ic_search" transform="translate(70.000000, 10.000000)">
                <path d="M11,18 C7.141,18 4,14.859 4,11 C4,7.141 7.141,4 11,4 C14.859,4 18,7.141 18,11 C18,14.859 14.859,18 11,18 M21.707,20.293 L18.025,16.611 C19.258,15.071 20,13.122 20,11 C20,6.037 15.963,2 11,2 C6.037,2 2,6.037 2,11 C2,15.963 6.037,20 11,20 C13.122,20 15.071,19.258 16.611,18.025 L20.293,21.707 C20.488,21.902 20.744,22 21,22 C21.256,22 21.512,21.902 21.707,21.707 C22.098,21.316 22.098,20.684 21.707,20.293" id="Fill-11"></path>
            </g>
        </g>
    </g>
</svg>