<?xml version="1.0" encoding="UTF-8" standalone="no"?>
<svg width="96px" height="96px" viewBox="0 0 96 96" version="1.1" xmlns="http://www.w3.org/2000/svg" xmlns:xlink="http://www.w3.org/1999/xlink">
    <!-- Generator: sketchtool 3.8.3 (29802) - http://www.bohemiancoding.com/sketch -->
    <title>A76FF7A9-E654-4836-A65C-AADBE40A3E2F</title>
    <desc>Created with sketchtool.</desc>
    <defs></defs>
    <g id="Guidelines" stroke="none" stroke-width="1" fill="none" fill-rule="evenodd">
        <g id="00c_Icons" transform="translate(-460.000000, -780.000000)">
            <g id="ic_social_feed_empty" transform="translate(460.000000, 780.000000)">
                <g transform="translate(6.000000, 7.000000)">
                    <path d="M18,15.2422 C12.061,20.5582 7.886,27.7992 6.501,36.0002" id="Stroke-1" stroke="#000000" stroke-width="2" stroke-linecap="round" stroke-linejoin="round"></path>
                    <path d="M73.1451,23.9931 C71.2321,20.7121 68.8141,17.7611 66.0001,15.2421" id="Stroke-3" stroke="#000000" stroke-width="2" stroke-linecap="round" stroke-linejoin="round"></path>
                    <path d="M66,68.7788 C69.919,65.2648 73.07,60.9118 75.158,55.9998" id="Stroke-5" stroke="#000000" stroke-width="2" stroke-linecap="round" stroke-linejoin="round"></path>
                    <path d="M66,24 L66,4 C66,1.791 64.209,0 62,0 L22,0 C19.791,0 18,1.791 18,4 L18,36" id="Stroke-7" stroke="#000000" stroke-width="2" stroke-linecap="round" stroke-linejoin="round"></path>
                    <path d="M18,68.7788 C24.372,74.4938 32.766,77.9998 42,77.9998 C51.234,77.9998 59.628,74.4938 66,68.7788 L66,55.9998" id="Stroke-9" stroke="#000000" stroke-width="2" stroke-linecap="round" stroke-linejoin="round"></path>
                    <path d="M18,12 L66,12" id="Stroke-11" stroke="#000000" stroke-width="2" stroke-linecap="round" stroke-linejoin="round"></path>
                    <path d="M36,6 L48,6" id="Stroke-13" stroke="#000000" stroke-width="2" stroke-linecap="round" stroke-linejoin="round"></path>
                    <path d="M80,24 L52,24 C49.791,24 48,25.791 48,28 L48,32 L42,36 L48,40 L48,52 C48,54.209 49.791,56 52,56 L80,56 C82.209,56 84,54.209 84,52 L84,28 C84,25.791 82.209,24 80,24 L80,24 Z" id="Stroke-15" stroke="#000000" stroke-width="2" stroke-linecap="round" stroke-linejoin="round"></path>
                    <path d="M36,52 L36,40 C36,37.791 34.209,36 32,36 L4,36 C1.791,36 0,37.791 0,40 L0,64 C0,66.209 1.791,68 4,68 L32,68 C34.209,68 36,66.209 36,64 L36,60 L42,56 L36,52 L36,52 Z" id="Stroke-17" stroke="#000000" stroke-width="2" stroke-linecap="round" stroke-linejoin="round"></path>
                    <path d="M28,45.6397 C27.265,45.9747 26.474,46.2007 25.644,46.3017 C26.492,45.7817 27.142,44.9567 27.448,43.9747 C26.655,44.4567 25.778,44.8067 24.841,44.9947 C24.094,44.1767 23.027,43.6667 21.846,43.6667 C19.582,43.6667 17.745,45.5507 17.745,47.8737 C17.745,48.2037 17.78,48.5237 17.85,48.8317 C14.44,48.6567 11.417,46.9827 9.392,44.4347 C9.039,45.0587 8.837,45.7817 8.837,46.5517 C8.837,48.0107 9.561,49.2997 10.662,50.0537 C9.991,50.0337 9.357,49.8417 8.803,49.5287 L8.803,49.5807 C8.803,51.6197 10.218,53.3207 12.096,53.7067 C11.752,53.8047 11.389,53.8547 11.015,53.8547 C10.75,53.8547 10.492,53.8287 10.242,53.7797 C10.765,55.4507 12.279,56.6677 14.075,56.7007 C12.671,57.8297 10.901,58.5027 8.979,58.5027 C8.648,58.5027 8.32,58.4827 8,58.4447 C9.816,59.6367 11.974,60.3337 14.29,60.3337 C21.838,60.3337 25.964,53.9227 25.964,48.3627 C25.964,48.1797 25.961,47.9967 25.954,47.8177 C26.756,47.2237 27.452,46.4837 28,45.6397" id="Fill-19" fill="#000000"></path>
                    <path d="M71,50 L61,50 C58.25,50 56,47.75 56,45 L56,35 C56,32.25 58.25,30 61,30 L71,30 C73.75,30 76,32.25 76,35 L76,45 C76,47.75 73.75,50 71,50" id="Fill-21" fill="#000000"></path>
                    <path d="M71.9903,43.237 C71.9903,44.791 70.7303,46.051 69.1763,46.051 L62.8233,46.051 C61.2693,46.051 60.0093,44.791 60.0093,43.237 L60.0093,36.884 C60.0093,35.33 61.2693,34.07 62.8233,34.07 L69.1763,34.07 C70.7303,34.07 71.9903,35.33 71.9903,36.884 L71.9903,43.237 Z M69.1043,32.681 L62.8963,32.681 C60.5553,32.681 58.6573,34.579 58.6573,36.92 L58.6573,43.128 C58.6573,45.469 60.5553,47.367 62.8963,47.367 L69.1043,47.367 C71.4453,47.367 73.3423,45.469 73.3423,43.128 L73.3423,36.92 C73.3423,34.579 71.4453,32.681 69.1043,32.681 L69.1043,32.681 Z" id="Fill-23" fill="#FFFFFF"></path>
                    <path d="M66,42.5304 C64.636,42.5304 63.53,41.4244 63.53,40.0604 C63.53,38.6964 64.636,37.5904 66,37.5904 C67.364,37.5904 68.47,38.6964 68.47,40.0604 C68.47,41.4244 67.364,42.5304 66,42.5304 M66,36.2504 C63.896,36.2504 62.19,37.9564 62.19,40.0604 C62.19,42.1644 63.896,43.8704 66,43.8704 C68.104,43.8704 69.81,42.1644 69.81,40.0604 C69.81,37.9564 68.104,36.2504 66,36.2504" id="Fill-25" fill="#FFFFFF"></path>
                    <path d="M69.9375,35.2174 C69.4475,35.2174 69.0495,35.6144 69.0495,36.1054 C69.0495,36.5954 69.4475,36.9924 69.9375,36.9924 C70.4275,36.9924 70.8255,36.5954 70.8255,36.1054 C70.8255,35.6144 70.4275,35.2174 69.9375,35.2174" id="Fill-27" fill="#FFFFFF"></path>
                </g>
            </g>
        </g>
    </g>
</svg>