<?xml version="1.0" encoding="UTF-8" standalone="no"?>
<svg width="24px" height="24px" viewBox="0 0 24 24" version="1.1" xmlns="http://www.w3.org/2000/svg" xmlns:xlink="http://www.w3.org/1999/xlink">
    <!-- Generator: sketchtool 3.8.3 (29802) - http://www.bohemiancoding.com/sketch -->
    <title>985AAD2D-6936-49C5-BC52-259B4E4F6105</title>
    <desc>Created with sketchtool.</desc>
    <defs></defs>
    <g id="Guidelines" stroke="none" stroke-width="1" fill="none" fill-rule="evenodd">
        <g id="00c_Icons" transform="translate(-970.000000, -136.000000)" fill="#2A3034">
            <g id="ic_search" transform="translate(970.000000, 136.000000)">
                <path d="M5,2 L13,2 C13.552,2 14,2.448 14,3 L14,5 L4,5 L4,3 C4,2.448 4.448,2 5,2 M15,20 C14.447,20 14,20.447 14,21 C14,21.552 13.552,22 13,22 L5,22 C4.448,22 4,21.552 4,21 L4,18 L8,18 C8.553,18 9,17.553 9,17 C9,16.447 8.553,16 8,16 L4,16 L4,7 L15,7 C15.553,7 16,6.553 16,6 L16,3 C16,1.346 14.654,0 13,0 L5,0 C3.346,0 2,1.346 2,3 L2,21 C2,22.654 3.346,24 5,24 L13,24 C14.654,24 16,22.654 16,21 C16,20.447 15.553,20 15,20 Z M8,20 C8,20.552 8.448,21 9,21 C9.552,21 10,20.552 10,20 C10,19.448 9.552,19 9,19 C8.448,19 8,19.448 8,20 Z M22.757,20.343 L19.707,17.293 C19.664,17.25 19.609,17.23 19.561,17.196 C20.452,16.218 21,14.923 21,13.5 C21,10.468 18.532,8 15.5,8 C12.468,8 10,10.468 10,13.5 C10,16.532 12.468,19 15.5,19 C16.428,19 17.302,18.767 18.07,18.359 C18.119,18.485 18.191,18.605 18.293,18.707 L21.343,21.757 C21.538,21.952 21.794,22.05 22.05,22.05 C22.306,22.05 22.562,21.952 22.757,21.757 C23.147,21.366 23.147,20.733 22.757,20.343 Z M15.5,17 C13.57,17 12,15.43 12,13.5 C12,11.57 13.57,10 15.5,10 C17.43,10 19,11.57 19,13.5 C19,15.43 17.43,17 15.5,17 Z" id="Combined-Shape"></path>
            </g>
        </g>
    </g>
</svg>