<?xml version="1.0" encoding="UTF-8" standalone="no"?>
<svg width="24px" height="24px" viewBox="0 0 24 24" version="1.1" xmlns="http://www.w3.org/2000/svg" xmlns:xlink="http://www.w3.org/1999/xlink">
    <!-- Generator: sketchtool 3.6.1 (26313) - http://www.bohemiancoding.com/sketch -->
    <title>5133F8C4-E58A-41E4-A345-B45561AA3B4C</title>
    <desc>Created with sketchtool.</desc>
    <defs></defs>
    <g id="Guidelines" stroke="none" stroke-width="1" fill="none" fill-rule="evenodd">
        <g id="Icons" transform="translate(-130.000000, -90.000000)" fill="#000000">
            <g id="ic_sign_out" transform="translate(130.000000, 90.000000)">
                <path d="M14,15 C13.447,15 13,15.447 13,16 L13,19 L3,19 L3,5 L13,5 L13,8 C13,8.553 13.447,9 14,9 C14.553,9 15,8.553 15,8 L15,4 C15,3.447 14.553,3 14,3 L2,3 C1.447,3 1,3.447 1,4 L1,20 C1,20.553 1.447,21 2,21 L14,21 C14.553,21 15,20.553 15,20 L15,16 C15,15.447 14.553,15 14,15 Z M22.923,12.3815 C23.024,12.1375 23.024,11.8625 22.923,11.6175 C22.872,11.4945 22.798,11.3835 22.706,11.2915 L18.707,7.2925 C18.316,6.9025 17.684,6.9025 17.293,7.2925 C16.902,7.6835 16.902,8.3165 17.293,8.7065 L19.586,10.9995 L10,10.9995 C9.447,10.9995 9,11.4465 9,11.9995 C9,12.5525 9.447,12.9995 10,12.9995 L19.586,12.9995 L17.293,15.2925 C16.902,15.6835 16.902,16.3165 17.293,16.7065 C17.488,16.9025 17.744,16.9995 18,16.9995 C18.256,16.9995 18.512,16.9025 18.707,16.7065 L22.706,12.7075 C22.798,12.6155 22.872,12.5045 22.923,12.3815 Z" id="Combined-Shape"></path>
            </g>
        </g>
    </g>
</svg>