<?xml version="1.0" encoding="UTF-8" standalone="no"?>
<svg width="24px" height="24px" viewBox="0 0 24 24" version="1.1" xmlns="http://www.w3.org/2000/svg" xmlns:xlink="http://www.w3.org/1999/xlink">
    <!-- Generator: sketchtool 3.6.1 (26313) - http://www.bohemiancoding.com/sketch -->
    <title>4C850E26-715E-4E58-8EE9-A6477FE41720</title>
    <desc>Created with sketchtool.</desc>
    <defs></defs>
    <g id="Guidelines" stroke="none" stroke-width="1" fill="none" fill-rule="evenodd">
        <g id="Icons" transform="translate(-130.000000, -50.000000)" fill="#000000">
            <g id="ic_settings" transform="translate(130.000000, 50.000000)">
                <path d="M22.297,9.445 L20.174,8.785 L20.054,8.495 L21.09,6.524 C21.294,6.136 21.222,5.661 20.912,5.351 L18.648,3.088 C18.337,2.777 17.863,2.704 17.476,2.91 L15.505,3.946 L15.216,3.827 L14.555,1.703 C14.424,1.285 14.037,1 13.6,1 L10.4,1 C9.963,1 9.576,1.285 9.445,1.703 L8.784,3.827 L8.495,3.946 L6.524,2.91 C6.137,2.704 5.662,2.777 5.352,3.088 L3.088,5.351 C2.778,5.661 2.706,6.135 2.91,6.523 L3.946,8.495 L3.827,8.784 L1.703,9.445 C1.285,9.576 1,9.963 1,10.4 L1,13.599 C1,14.037 1.285,14.424 1.703,14.554 L3.826,15.216 L3.946,15.506 L2.91,17.475 C2.706,17.863 2.778,18.339 3.088,18.648 L5.352,20.912 C5.662,21.222 6.137,21.295 6.524,21.09 L8.494,20.053 L8.785,20.174 L9.445,22.297 C9.575,22.715 9.963,23 10.4,23 L13.6,23 C14.037,23 14.424,22.715 14.555,22.297 L15.216,20.173 L15.505,20.053 L17.476,21.09 C17.863,21.295 18.337,21.222 18.648,20.912 L20.912,18.648 C21.222,18.339 21.294,17.863 21.09,17.475 L20.054,15.505 L20.173,15.216 L22.297,14.554 C22.715,14.424 23,14.037 23,13.599 L23,10.4 C23,9.963 22.715,9.575 22.297,9.445 Z M21,12.863 L19.131,13.445 C18.847,13.534 18.616,13.744 18.503,14.019 L18.026,15.176 C17.914,15.449 17.928,15.759 18.066,16.022 L18.978,17.755 L17.755,18.977 L16.022,18.066 C15.76,17.926 15.449,17.914 15.176,18.026 L14.02,18.503 C13.744,18.616 13.534,18.846 13.445,19.131 L12.863,21 L11.137,21 L10.556,19.132 C10.467,18.847 10.257,18.618 9.982,18.504 L8.825,18.026 C8.551,17.916 8.241,17.926 7.978,18.066 L6.245,18.977 L5.022,17.755 L5.934,16.022 C6.072,15.759 6.086,15.449 5.973,15.175 L5.495,14.018 C5.382,13.744 5.152,13.534 4.868,13.445 L3,12.863 L3,11.136 L4.869,10.554 C5.153,10.466 5.383,10.256 5.497,9.98 L5.974,8.825 C6.086,8.551 6.072,8.241 5.934,7.979 L5.022,6.245 L6.245,5.022 L7.978,5.933 C8.24,6.072 8.55,6.085 8.824,5.973 L9.98,5.497 C10.256,5.384 10.466,5.153 10.555,4.869 L11.137,3 L12.863,3 L13.445,4.869 C13.534,5.153 13.744,5.384 14.02,5.497 L15.176,5.973 C15.449,6.085 15.76,6.072 16.022,5.933 L17.755,5.022 L18.978,6.245 L18.066,7.977 C17.928,8.24 17.914,8.55 18.026,8.824 L18.503,9.981 C18.616,10.257 18.847,10.467 19.131,10.555 L21,11.136 L21,12.863 Z M12,7 C9.243,7 7,9.243 7,12 C7,14.757 9.243,17 12,17 C14.757,17 17,14.757 17,12 C17,9.243 14.757,7 12,7 Z M12,15 C10.346,15 9,13.654 9,12 C9,10.346 10.346,9 12,9 C13.654,9 15,10.346 15,12 C15,13.654 13.654,15 12,15 Z" id="Combined-Shape"></path>
            </g>
        </g>
    </g>
</svg>