<?xml version="1.0" encoding="UTF-8" standalone="no"?>
<svg width="24px" height="24px" viewBox="0 0 24 24" version="1.1" xmlns="http://www.w3.org/2000/svg" xmlns:xlink="http://www.w3.org/1999/xlink">
    <!-- Generator: sketchtool 3.6.1 (26313) - http://www.bohemiancoding.com/sketch -->
    <title>C7325849-907E-44E1-AC84-1F63C01CEE26</title>
    <desc>Created with sketchtool.</desc>
    <defs></defs>
    <g id="Guidelines" stroke="none" stroke-width="1" fill="none" fill-rule="evenodd">
        <g id="Icons" transform="translate(-40.000000, -50.000000)" fill="#000000">
            <g id="ic_user" transform="translate(40.000000, 50.000000)">
                <path d="M4.061,20 C4.519,16.322 7.533,14 12,14 C16.468,14 19.482,16.322 19.94,20 L4.061,20 Z M8,8 C8,5.794 9.794,4 12,4 C14.207,4 16,5.794 16,8 C16,10.206 14.207,12 12,12 C9.794,12 8,10.206 8,8 L8,8 Z M15.846,12.6 C17.161,11.499 18,9.846 18,8 C18,4.691 15.309,2 12,2 C8.692,2 6,4.691 6,8 C6,9.846 6.84,11.499 8.155,12.6 C4.402,13.847 2,16.955 2,21 C2,21.553 2.448,22 3,22 L21,22 C21.553,22 22,21.553 22,21 C22,16.955 19.599,13.847 15.846,12.6 L15.846,12.6 Z" id="Fill-45"></path>
            </g>
        </g>
    </g>
</svg>