<?xml version="1.0" encoding="UTF-8" standalone="no"?>
<svg width="24px" height="24px" viewBox="0 0 24 24" version="1.1" xmlns="http://www.w3.org/2000/svg" xmlns:xlink="http://www.w3.org/1999/xlink">
    <!-- Generator: sketchtool 3.8.3 (29802) - http://www.bohemiancoding.com/sketch -->
    <title>AD1CA9B6-5C73-4815-AD5E-3C8FEDCE2FDA</title>
    <desc>Created with sketchtool.</desc>
    <defs></defs>
    <g id="Guidelines" stroke="none" stroke-width="1" fill="none" fill-rule="evenodd">
        <g id="00c_Icons" transform="translate(-670.000000, -176.000000)" fill="#2A3034">
            <g id="ic_video" transform="translate(670.000000, 176.000000)">
                <path d="M19,2 L5,2 C3.346,2 2,3.346 2,5 L2,20 C2,21.654 3.346,23 5,23 L19,23 C20.654,23 22,21.654 22,20 L22,5 C22,3.346 20.654,2 19,2 Z M20,20 C20,20.552 19.552,21 19,21 L5,21 C4.448,21 4,20.552 4,20 L4,5 C4,4.448 4.448,4 5,4 L19,4 C19.552,4 20,4.448 20,5 L20,20 Z M14.015,11.6426996 L11.515,10.1426996 C11.205,9.95669964 10.822,9.95269964 10.507,10.1296996 C10.194,10.3076996 10,10.6396996 10,10.9996996 L10,13.9996996 C10,14.3606996 10.194,14.6926996 10.507,14.8706996 C10.661,14.9566996 10.83,14.9996996 11,14.9996996 C11.178,14.9996996 11.357,14.9526996 11.515,14.8576996 L14.015,13.3576996 C14.316,13.1766996 14.5,12.8516996 14.5,12.4996996 C14.5,12.1486996 14.316,11.8236996 14.015,11.6426996 Z M18,16 C17.447,16 17,16.447 17,17 L17,18 C17,18.553 17.447,19 18,19 C18.553,19 19,18.553 19,18 L19,17 C19,16.447 18.553,16 18,16 Z M18,11 C17.447,11 17,11.447 17,12 L17,13 C17,13.553 17.447,14 18,14 C18.553,14 19,13.553 19,13 L19,12 C19,11.447 18.553,11 18,11 Z M18,6 C17.447,6 17,6.447 17,7 L17,8 C17,8.553 17.447,9 18,9 C18.553,9 19,8.553 19,8 L19,7 C19,6.447 18.553,6 18,6 Z M6,16 C5.447,16 5,16.447 5,17 L5,18 C5,18.553 5.447,19 6,19 C6.553,19 7,18.553 7,18 L7,17 C7,16.447 6.553,16 6,16 Z M6,11 C5.447,11 5,11.447 5,12 L5,13 C5,13.553 5.447,14 6,14 C6.553,14 7,13.553 7,13 L7,12 C7,11.447 6.553,11 6,11 Z M6,6 C5.447,6 5,6.447 5,7 L5,8 C5,8.553 5.447,9 6,9 C6.553,9 7,8.553 7,8 L7,7 C7,6.447 6.553,6 6,6 Z" id="Combined-Shape"></path>
            </g>
        </g>
    </g>
</svg>